%TF.GenerationSoftware,KiCad,Pcbnew,(6.0.10)*%
%TF.CreationDate,2023-08-28T22:53:31+09:00*%
%TF.ProjectId,204-pcb-wearable-v2-main-board,3230342d-7063-4622-9d77-65617261626c,rev?*%
%TF.SameCoordinates,Original*%
%TF.FileFunction,Legend,Bot*%
%TF.FilePolarity,Positive*%
%FSLAX46Y46*%
G04 Gerber Fmt 4.6, Leading zero omitted, Abs format (unit mm)*
G04 Created by KiCad (PCBNEW (6.0.10)) date 2023-08-28 22:53:31*
%MOMM*%
%LPD*%
G01*
G04 APERTURE LIST*
%ADD10C,0.100000*%
%ADD11C,0.120000*%
%ADD12C,0.260000*%
%ADD13O,1.000000X1.500000*%
%ADD14C,1.000000*%
%ADD15O,1.000000X1.000000*%
G04 APERTURE END LIST*
D10*
X34933333Y1481667D02*
X35633333Y1481667D01*
X34933333Y1881667D01*
X35633333Y1881667D01*
X35300000Y2448334D02*
X35300000Y2215000D01*
X34933333Y2215000D02*
X35633333Y2215000D01*
X35633333Y2548334D01*
X35000000Y3215000D02*
X34966666Y3181667D01*
X34933333Y3081667D01*
X34933333Y3015000D01*
X34966666Y2915000D01*
X35033333Y2848334D01*
X35100000Y2815000D01*
X35233333Y2781667D01*
X35333333Y2781667D01*
X35466666Y2815000D01*
X35533333Y2848334D01*
X35600000Y2915000D01*
X35633333Y3015000D01*
X35633333Y3081667D01*
X35600000Y3181667D01*
X35566666Y3215000D01*
X35566666Y3481667D02*
X35600000Y3515000D01*
X35633333Y3581667D01*
X35633333Y3748334D01*
X35600000Y3815000D01*
X35566666Y3848334D01*
X35500000Y3881667D01*
X35433333Y3881667D01*
X35333333Y3848334D01*
X34933333Y3448334D01*
X34933333Y3881667D01*
X32633333Y5415000D02*
X32633333Y5848334D01*
X32366666Y5615000D01*
X32366666Y5715000D01*
X32333333Y5781667D01*
X32300000Y5815000D01*
X32233333Y5848334D01*
X32066666Y5848334D01*
X32000000Y5815000D01*
X31966666Y5781667D01*
X31933333Y5715000D01*
X31933333Y5515000D01*
X31966666Y5448334D01*
X32000000Y5415000D01*
X32633333Y6048334D02*
X31933333Y6281667D01*
X32633333Y6515000D01*
X32633333Y6681667D02*
X32633333Y7115000D01*
X32366666Y6881667D01*
X32366666Y6981667D01*
X32333333Y7048334D01*
X32300000Y7081667D01*
X32233333Y7115000D01*
X32066666Y7115000D01*
X32000000Y7081667D01*
X31966666Y7048334D01*
X31933333Y6981667D01*
X31933333Y6781667D01*
X31966666Y6715000D01*
X32000000Y6681667D01*
X34516666Y4948334D02*
X34483333Y5048334D01*
X34483333Y5215000D01*
X34516666Y5281667D01*
X34550000Y5315000D01*
X34616666Y5348334D01*
X34683333Y5348334D01*
X34750000Y5315000D01*
X34783333Y5281667D01*
X34816666Y5215000D01*
X34850000Y5081667D01*
X34883333Y5015000D01*
X34916666Y4981667D01*
X34983333Y4948334D01*
X35050000Y4948334D01*
X35116666Y4981667D01*
X35150000Y5015000D01*
X35183333Y5081667D01*
X35183333Y5248334D01*
X35150000Y5348334D01*
X34483333Y5648334D02*
X35183333Y5648334D01*
X35183333Y5815000D01*
X35150000Y5915000D01*
X35083333Y5981667D01*
X35016666Y6015000D01*
X34883333Y6048334D01*
X34783333Y6048334D01*
X34650000Y6015000D01*
X34583333Y5981667D01*
X34516666Y5915000D01*
X34483333Y5815000D01*
X34483333Y5648334D01*
X34483333Y6348334D02*
X35183333Y6348334D01*
X35183333Y6815000D02*
X35183333Y6948334D01*
X35150000Y7015000D01*
X35083333Y7081667D01*
X34950000Y7115000D01*
X34716666Y7115000D01*
X34583333Y7081667D01*
X34516666Y7015000D01*
X34483333Y6948334D01*
X34483333Y6815000D01*
X34516666Y6748334D01*
X34583333Y6681667D01*
X34716666Y6648334D01*
X34950000Y6648334D01*
X35083333Y6681667D01*
X35150000Y6748334D01*
X35183333Y6815000D01*
X33266666Y4698334D02*
X33233333Y4798334D01*
X33233333Y4965000D01*
X33266666Y5031667D01*
X33300000Y5065000D01*
X33366666Y5098334D01*
X33433333Y5098334D01*
X33500000Y5065000D01*
X33533333Y5031667D01*
X33566666Y4965000D01*
X33600000Y4831667D01*
X33633333Y4765000D01*
X33666666Y4731667D01*
X33733333Y4698334D01*
X33800000Y4698334D01*
X33866666Y4731667D01*
X33900000Y4765000D01*
X33933333Y4831667D01*
X33933333Y4998334D01*
X33900000Y5098334D01*
X33300000Y5798334D02*
X33266666Y5765000D01*
X33233333Y5665000D01*
X33233333Y5598334D01*
X33266666Y5498334D01*
X33333333Y5431667D01*
X33400000Y5398334D01*
X33533333Y5365000D01*
X33633333Y5365000D01*
X33766666Y5398334D01*
X33833333Y5431667D01*
X33900000Y5498334D01*
X33933333Y5598334D01*
X33933333Y5665000D01*
X33900000Y5765000D01*
X33866666Y5798334D01*
X33233333Y6431667D02*
X33233333Y6098334D01*
X33933333Y6098334D01*
X33233333Y6665000D02*
X33933333Y6665000D01*
X33233333Y7065000D02*
X33633333Y6765000D01*
X33933333Y7065000D02*
X33533333Y6665000D01*
X36400000Y5598334D02*
X36433333Y5531667D01*
X36433333Y5431667D01*
X36400000Y5331667D01*
X36333333Y5265000D01*
X36266666Y5231667D01*
X36133333Y5198334D01*
X36033333Y5198334D01*
X35900000Y5231667D01*
X35833333Y5265000D01*
X35766666Y5331667D01*
X35733333Y5431667D01*
X35733333Y5498334D01*
X35766666Y5598334D01*
X35800000Y5631667D01*
X36033333Y5631667D01*
X36033333Y5498334D01*
X35733333Y5931667D02*
X36433333Y5931667D01*
X35733333Y6331667D01*
X36433333Y6331667D01*
X35733333Y6665000D02*
X36433333Y6665000D01*
X36433333Y6831667D01*
X36400000Y6931667D01*
X36333333Y6998334D01*
X36266666Y7031667D01*
X36133333Y7065000D01*
X36033333Y7065000D01*
X35900000Y7031667D01*
X35833333Y6998334D01*
X35766666Y6931667D01*
X35733333Y6831667D01*
X35733333Y6665000D01*
X31933333Y1481667D02*
X32633333Y1481667D01*
X31933333Y1881667D01*
X32633333Y1881667D01*
X32300000Y2448334D02*
X32300000Y2215000D01*
X31933333Y2215000D02*
X32633333Y2215000D01*
X32633333Y2548334D01*
X32000000Y3215000D02*
X31966666Y3181667D01*
X31933333Y3081667D01*
X31933333Y3015000D01*
X31966666Y2915000D01*
X32033333Y2848334D01*
X32100000Y2815000D01*
X32233333Y2781667D01*
X32333333Y2781667D01*
X32466666Y2815000D01*
X32533333Y2848334D01*
X32600000Y2915000D01*
X32633333Y3015000D01*
X32633333Y3081667D01*
X32600000Y3181667D01*
X32566666Y3215000D01*
X31933333Y3881667D02*
X31933333Y3481667D01*
X31933333Y3681667D02*
X32633333Y3681667D01*
X32533333Y3615000D01*
X32466666Y3548334D01*
X32433333Y3481667D01*
%TO.C,J7*%
X26683333Y2301667D02*
X26683333Y1901667D01*
X26683333Y2101667D02*
X27383333Y2101667D01*
X27283333Y2035000D01*
X27216666Y1968334D01*
X27183333Y1901667D01*
X29829600Y2235000D02*
X29862933Y2168334D01*
X29862933Y2068334D01*
X29829600Y1968334D01*
X29762933Y1901667D01*
X29696266Y1868334D01*
X29562933Y1835000D01*
X29462933Y1835000D01*
X29329600Y1868334D01*
X29262933Y1901667D01*
X29196266Y1968334D01*
X29162933Y2068334D01*
X29162933Y2135000D01*
X29196266Y2235000D01*
X29229600Y2268334D01*
X29462933Y2268334D01*
X29462933Y2135000D01*
X29162933Y2568334D02*
X29862933Y2568334D01*
X29162933Y2968334D01*
X29862933Y2968334D01*
X29162933Y3301667D02*
X29862933Y3301667D01*
X29862933Y3468334D01*
X29829600Y3568334D01*
X29762933Y3635000D01*
X29696266Y3668334D01*
X29562933Y3701667D01*
X29462933Y3701667D01*
X29329600Y3668334D01*
X29262933Y3635000D01*
X29196266Y3568334D01*
X29162933Y3468334D01*
X29162933Y3301667D01*
X26083333Y7065000D02*
X26083333Y6731667D01*
X25750000Y6698334D01*
X25783333Y6731667D01*
X25816666Y6798334D01*
X25816666Y6965000D01*
X25783333Y7031667D01*
X25750000Y7065000D01*
X25683333Y7098334D01*
X25516666Y7098334D01*
X25450000Y7065000D01*
X25416666Y7031667D01*
X25383333Y6965000D01*
X25383333Y6798334D01*
X25416666Y6731667D01*
X25450000Y6698334D01*
X26016666Y1901667D02*
X26050000Y1935000D01*
X26083333Y2001667D01*
X26083333Y2168334D01*
X26050000Y2235000D01*
X26016666Y2268334D01*
X25950000Y2301667D01*
X25883333Y2301667D01*
X25783333Y2268334D01*
X25383333Y1868334D01*
X25383333Y2301667D01*
X28583333Y2068334D02*
X28583333Y2135000D01*
X28550000Y2201667D01*
X28516666Y2235000D01*
X28450000Y2268334D01*
X28316666Y2301667D01*
X28150000Y2301667D01*
X28016666Y2268334D01*
X27950000Y2235000D01*
X27916666Y2201667D01*
X27883333Y2135000D01*
X27883333Y2068334D01*
X27916666Y2001667D01*
X27950000Y1968334D01*
X28016666Y1935000D01*
X28150000Y1901667D01*
X28316666Y1901667D01*
X28450000Y1935000D01*
X28516666Y1968334D01*
X28550000Y2001667D01*
X28583333Y2068334D01*
X29883333Y5365000D02*
X29883333Y5798334D01*
X29616666Y5565000D01*
X29616666Y5665000D01*
X29583333Y5731667D01*
X29550000Y5765000D01*
X29483333Y5798334D01*
X29316666Y5798334D01*
X29250000Y5765000D01*
X29216666Y5731667D01*
X29183333Y5665000D01*
X29183333Y5465000D01*
X29216666Y5398334D01*
X29250000Y5365000D01*
X29883333Y5998334D02*
X29183333Y6231667D01*
X29883333Y6465000D01*
X29883333Y6631667D02*
X29883333Y7065000D01*
X29616666Y6831667D01*
X29616666Y6931667D01*
X29583333Y6998334D01*
X29550000Y7031667D01*
X29483333Y7065000D01*
X29316666Y7065000D01*
X29250000Y7031667D01*
X29216666Y6998334D01*
X29183333Y6931667D01*
X29183333Y6731667D01*
X29216666Y6665000D01*
X29250000Y6631667D01*
X24550000Y7031667D02*
X24083333Y7031667D01*
X24816666Y6865000D02*
X24316666Y6698334D01*
X24316666Y7131667D01*
X24783333Y1868334D02*
X24783333Y2301667D01*
X24516666Y2068334D01*
X24516666Y2168334D01*
X24483333Y2235000D01*
X24450000Y2268334D01*
X24383333Y2301667D01*
X24216666Y2301667D01*
X24150000Y2268334D01*
X24116666Y2235000D01*
X24083333Y2168334D01*
X24083333Y1968334D01*
X24116666Y1901667D01*
X24150000Y1868334D01*
X28583333Y6665000D02*
X28583333Y7131667D01*
X27883333Y6831667D01*
X27383333Y7031667D02*
X27383333Y6898334D01*
X27350000Y6831667D01*
X27316666Y6798334D01*
X27216666Y6731667D01*
X27083333Y6698334D01*
X26816666Y6698334D01*
X26750000Y6731667D01*
X26716666Y6765000D01*
X26683333Y6831667D01*
X26683333Y6965000D01*
X26716666Y7031667D01*
X26750000Y7065000D01*
X26816666Y7098334D01*
X26983333Y7098334D01*
X27050000Y7065000D01*
X27083333Y7031667D01*
X27116666Y6965000D01*
X27116666Y6831667D01*
X27083333Y6765000D01*
X27050000Y6731667D01*
X26983333Y6698334D01*
%TO.C,J5*%
X14250000Y2135000D02*
X14216666Y2235000D01*
X14183333Y2268334D01*
X14116666Y2301667D01*
X14016666Y2301667D01*
X13950000Y2268334D01*
X13916666Y2235000D01*
X13883333Y2168334D01*
X13883333Y1901667D01*
X14583333Y1901667D01*
X14583333Y2135000D01*
X14550000Y2201667D01*
X14516666Y2235000D01*
X14450000Y2268334D01*
X14383333Y2268334D01*
X14316666Y2235000D01*
X14283333Y2201667D01*
X14250000Y2135000D01*
X14250000Y1901667D01*
X12683333Y6715001D02*
X13383333Y6715001D01*
X13050000Y6715001D02*
X13050000Y7115001D01*
X12683333Y7115001D02*
X13383333Y7115001D01*
X11383333Y1901667D02*
X12083333Y1901667D01*
X12083333Y2068334D01*
X12050000Y2168334D01*
X11983333Y2235000D01*
X11916666Y2268334D01*
X11783333Y2301667D01*
X11683333Y2301667D01*
X11550000Y2268334D01*
X11483333Y2235000D01*
X11416666Y2168334D01*
X11383333Y2068334D01*
X11383333Y1901667D01*
X12750000Y2301667D02*
X12716666Y2268334D01*
X12683333Y2168334D01*
X12683333Y2101667D01*
X12716666Y2001667D01*
X12783333Y1935000D01*
X12850000Y1901667D01*
X12983333Y1868334D01*
X13083333Y1868334D01*
X13216666Y1901667D01*
X13283333Y1935000D01*
X13350000Y2001667D01*
X13383333Y2101667D01*
X13383333Y2168334D01*
X13350000Y2268334D01*
X13316666Y2301667D01*
X10450000Y1935001D02*
X10450000Y2168334D01*
X10083333Y2268334D02*
X10083333Y1935001D01*
X10783333Y1935001D01*
X10783333Y2268334D01*
X13883333Y6915001D02*
X14583333Y6915001D01*
X10450000Y7015000D02*
X10450000Y6781667D01*
X10083333Y6781667D02*
X10783333Y6781667D01*
X10783333Y7115000D01*
X15383333Y1918334D02*
X15383333Y2251667D01*
X15183333Y1851667D02*
X15883333Y2085000D01*
X15183333Y2318334D01*
X15883333Y7015001D02*
X15383333Y7015001D01*
X15283333Y6981668D01*
X15216666Y6915001D01*
X15183333Y6815001D01*
X15183333Y6748334D01*
X12050000Y7098334D02*
X12083333Y7031667D01*
X12083333Y6931667D01*
X12050000Y6831667D01*
X11983333Y6765000D01*
X11916666Y6731667D01*
X11783333Y6698334D01*
X11683333Y6698334D01*
X11550000Y6731667D01*
X11483333Y6765000D01*
X11416666Y6831667D01*
X11383333Y6931667D01*
X11383333Y6998334D01*
X11416666Y7098334D01*
X11450000Y7131667D01*
X11683333Y7131667D01*
X11683333Y6998334D01*
D11*
%TO.C,J7*%
X30500000Y500000D02*
X30200000Y500000D01*
X23800000Y500000D02*
X23500000Y500000D01*
X31000000Y1300000D02*
X31000000Y1000000D01*
X31000000Y8000000D02*
X31000000Y7700000D01*
X23000000Y1000000D02*
X23000000Y1300000D01*
X23000000Y7700000D02*
X23000000Y8000000D01*
X30200000Y8500000D02*
X30500000Y8500000D01*
X23500000Y8500000D02*
X23800000Y8500000D01*
X31000000Y8000000D02*
G75*
G03*
X30500000Y8500000I-500000J0D01*
G01*
X30500000Y500000D02*
G75*
G03*
X31000000Y1000000I-1J500001D01*
G01*
X23000000Y1000000D02*
G75*
G03*
X23500000Y500000I500001J1D01*
G01*
X23500000Y8500000D02*
G75*
G03*
X23000000Y8000000I0J-500000D01*
G01*
D12*
X30630000Y1000000D02*
G75*
G03*
X30630000Y1000000I-130000J0D01*
G01*
D11*
%TO.C,J5*%
X9800000Y500000D02*
X9500000Y500000D01*
X9000000Y7700000D02*
X9000000Y8000000D01*
X17000000Y8000000D02*
X17000000Y7700000D01*
X16500000Y500000D02*
X16200000Y500000D01*
X9000000Y1000000D02*
X9000000Y1300000D01*
X17000000Y1300000D02*
X17000000Y1000000D01*
X9500000Y8500000D02*
X9800000Y8500000D01*
X16200000Y8500000D02*
X16500000Y8500000D01*
X9500000Y8500000D02*
G75*
G03*
X9000000Y8000000I0J-500000D01*
G01*
X16500000Y500000D02*
G75*
G03*
X17000000Y1000000I-1J500001D01*
G01*
X17000000Y8000000D02*
G75*
G03*
X16500000Y8500000I-500000J0D01*
G01*
X9000000Y1000000D02*
G75*
G03*
X9500000Y500000I500001J1D01*
G01*
D12*
X16630000Y1000000D02*
G75*
G03*
X16630000Y1000000I-130000J0D01*
G01*
%TD*%
%LPC*%
D13*
%TO.C,J7*%
X29540000Y1000000D03*
X28270000Y1000000D03*
X27000000Y1000000D03*
X25730000Y1000000D03*
X24460000Y1000000D03*
X24460000Y8000000D03*
X25730000Y8000000D03*
X27000000Y8000000D03*
X28270000Y8000000D03*
X29540000Y8000000D03*
%TD*%
%TO.C,J5*%
X15540000Y1000000D03*
X14270000Y1000000D03*
X13000000Y1000000D03*
X11730000Y1000000D03*
X10460000Y1000000D03*
X10460000Y8000000D03*
X11730000Y8000000D03*
X13000000Y8000000D03*
X14270000Y8000000D03*
X15540000Y8000000D03*
%TD*%
D14*
%TO.C,J3*%
X32300000Y8000000D03*
D15*
X33570000Y8000000D03*
X34840000Y8000000D03*
X36110000Y8000000D03*
%TD*%
D14*
%TO.C,J8*%
X33200000Y1000000D03*
D15*
X34470000Y1000000D03*
%TD*%
M02*
