M48
INCH
T1C0.0118
%
G90
G05
T1
X0.0157Y0.2835
X0.0157Y0.1772
X0.0157Y0.0748
X0.0748Y0.1004
X0.1732Y0.3307
X0.1732Y0.252
X0.1732Y0.2028
X0.1732Y0.1516
X0.1732Y0.1024
X0.1732Y0.0236
X0.2402Y0.3307
X0.2402Y0.0236
X0.2835Y0.2165
X0.2835Y0.1339
X0.315Y0.3307
X0.3169Y0.0236
X0.3622Y0.3169
X0.3622Y0.0394
X0.4134Y0.2579
X0.4134Y0.2165
X0.4252Y0.1899
X0.4311Y0.2756
X0.4843Y0.2756
X0.4961Y0.2165
X0.4961Y0.1339
X0.561Y0.0866
X0.5886Y0.2768
X0.6102Y0.2165
X0.6102Y0.1339
X0.6614Y0.315
X0.6614Y0.0413
X0.7146Y0.3307
X0.7165Y0.2165
X0.7165Y0.1339
X0.7185Y0.0236
X0.7874Y0.3307
X0.7874Y0.0236
X0.8189Y0.2165
X0.8189Y0.1339
X0.8622Y0.3307
X0.8622Y0.0236
X0.9134Y0.3307
X0.9134Y0.2835
X0.9134Y0.2185
X0.9134Y0.1339
X0.9134Y0.0394
X0.963Y0.0836
X0.998Y0.2717
X1.002Y0.2343
X1.013Y0.0836
X1.0276Y0.2717
X1.063Y0.2717
X1.0709Y0.0837
X1.0974Y0.0803
X1.1135Y0.2684
X1.1417Y0.2717
X1.1535Y0.122
X1.2106Y0.3189
X1.2106Y0.2835
X1.2107Y0.246
X1.2126Y0.1378
X1.2126Y0.0394
X1.2559Y0.2598
X1.2598Y0.0236
X1.2874Y0.2835
X1.3228Y0.2165
X1.3228Y0.1378
X1.3409Y0.2844
X1.4094Y0.2165
X1.4094Y0.1378
X1.4331Y0.063
X1.4705Y0.3287
X1.4763Y0.061
X1.4782Y0.2165
X1.4793Y0.1388
X1.5157Y0.2953
X1.5157Y0.2165
X1.5157Y0.1378
X1.5157Y0.0591
X1.5551Y0.3386
X1.5551Y0.2953
X1.5551Y0.2165
X1.5551Y0.1378
X1.5551Y0.0157
X1.556Y0.0581
X1.5562Y0.0953
X1.5935Y0.1378
X1.5945Y0.2184
X1.5945Y0.1772
X1.5945Y0.0591
X1.5952Y0.0992
X1.5955Y0.2922
X1.5955Y0.2528
X1.622Y0.3386
X1.622Y0.0157
T0
M30
