%TF.GenerationSoftware,KiCad,Pcbnew,(6.0.10)*%
%TF.CreationDate,2023-08-28T22:53:31+09:00*%
%TF.ProjectId,204-pcb-wearable-v2-main-board,3230342d-7063-4622-9d77-65617261626c,rev?*%
%TF.SameCoordinates,Original*%
%TF.FileFunction,Legend,Top*%
%TF.FilePolarity,Positive*%
%FSLAX46Y46*%
G04 Gerber Fmt 4.6, Leading zero omitted, Abs format (unit mm)*
G04 Created by KiCad (PCBNEW (6.0.10)) date 2023-08-28 22:53:31*
%MOMM*%
%LPD*%
G01*
G04 APERTURE LIST*
G04 Aperture macros list*
%AMRoundRect*
0 Rectangle with rounded corners*
0 $1 Rounding radius*
0 $2 $3 $4 $5 $6 $7 $8 $9 X,Y pos of 4 corners*
0 Add a 4 corners polygon primitive as box body*
4,1,4,$2,$3,$4,$5,$6,$7,$8,$9,$2,$3,0*
0 Add four circle primitives for the rounded corners*
1,1,$1+$1,$2,$3*
1,1,$1+$1,$4,$5*
1,1,$1+$1,$6,$7*
1,1,$1+$1,$8,$9*
0 Add four rect primitives between the rounded corners*
20,1,$1+$1,$2,$3,$4,$5,0*
20,1,$1+$1,$4,$5,$6,$7,0*
20,1,$1+$1,$6,$7,$8,$9,0*
20,1,$1+$1,$8,$9,$2,$3,0*%
G04 Aperture macros list end*
%ADD10C,0.100000*%
%ADD11C,0.050000*%
%ADD12C,0.010000*%
%ADD13C,0.120000*%
%ADD14C,0.260000*%
%ADD15C,0.600000*%
%ADD16O,1.000000X1.500000*%
%ADD17O,1.600000X1.000000*%
%ADD18RoundRect,0.250000X-0.250000X0.250000X-0.250000X-0.250000X0.250000X-0.250000X0.250000X0.250000X0*%
G04 APERTURE END LIST*
D10*
%TO.C,J4*%
X13950000Y7098334D02*
X13916666Y7031667D01*
X13916666Y6931667D01*
X13950000Y6831667D01*
X14016666Y6765000D01*
X14083333Y6731667D01*
X14216666Y6698334D01*
X14316666Y6698334D01*
X14450000Y6731667D01*
X14516666Y6765000D01*
X14583333Y6831667D01*
X14616666Y6931667D01*
X14616666Y6998334D01*
X14583333Y7098334D01*
X14550000Y7131667D01*
X14316666Y7131667D01*
X14316666Y6998334D01*
X11750000Y2135000D02*
X11783333Y2235000D01*
X11816666Y2268334D01*
X11883333Y2301667D01*
X11983333Y2301667D01*
X12050000Y2268334D01*
X12083333Y2235000D01*
X12116666Y2168334D01*
X12116666Y1901667D01*
X11416666Y1901667D01*
X11416666Y2135000D01*
X11450000Y2201667D01*
X11483333Y2235000D01*
X11550000Y2268334D01*
X11616666Y2268334D01*
X11683333Y2235000D01*
X11716666Y2201667D01*
X11750000Y2135000D01*
X11750000Y1901667D01*
X10616666Y1918334D02*
X10616666Y2251667D01*
X10816666Y1851667D02*
X10116666Y2085000D01*
X10816666Y2318334D01*
X13316666Y6715001D02*
X12616666Y6715001D01*
X12950000Y6715001D02*
X12950000Y7115001D01*
X13316666Y7115001D02*
X12616666Y7115001D01*
X12116666Y6915001D02*
X11416666Y6915001D01*
X14616666Y1901667D02*
X13916666Y1901667D01*
X13916666Y2068334D01*
X13950000Y2168334D01*
X14016666Y2235000D01*
X14083333Y2268334D01*
X14216666Y2301667D01*
X14316666Y2301667D01*
X14450000Y2268334D01*
X14516666Y2235000D01*
X14583333Y2168334D01*
X14616666Y2068334D01*
X14616666Y1901667D01*
X13250000Y2301667D02*
X13283333Y2268334D01*
X13316666Y2168334D01*
X13316666Y2101667D01*
X13283333Y2001667D01*
X13216666Y1935000D01*
X13150000Y1901667D01*
X13016666Y1868334D01*
X12916666Y1868334D01*
X12783333Y1901667D01*
X12716666Y1935000D01*
X12650000Y2001667D01*
X12616666Y2101667D01*
X12616666Y2168334D01*
X12650000Y2268334D01*
X12683333Y2301667D01*
X15550000Y7015000D02*
X15550000Y6781667D01*
X15916666Y6781667D02*
X15216666Y6781667D01*
X15216666Y7115000D01*
X15550000Y1935001D02*
X15550000Y2168334D01*
X15916666Y2268334D02*
X15916666Y1935001D01*
X15216666Y1935001D01*
X15216666Y2268334D01*
X10116666Y7015001D02*
X10616666Y7015001D01*
X10716666Y6981668D01*
X10783333Y6915001D01*
X10816666Y6815001D01*
X10816666Y6748334D01*
%TO.C,J2*%
X735000Y3488334D02*
X735000Y4188334D01*
X901666Y4188334D01*
X1001666Y4155000D01*
X1068333Y4088334D01*
X1101666Y4021667D01*
X1135000Y3888334D01*
X1135000Y3788334D01*
X1101666Y3655000D01*
X1068333Y3588334D01*
X1001666Y3521667D01*
X901666Y3488334D01*
X735000Y3488334D01*
X1435000Y3755000D02*
X1968333Y3755000D01*
X1701666Y3488334D02*
X1701666Y4021667D01*
X1368333Y6728334D02*
X1035000Y6728334D01*
X1001666Y6395000D01*
X1035000Y6428334D01*
X1101666Y6461667D01*
X1268333Y6461667D01*
X1335000Y6428334D01*
X1368333Y6395000D01*
X1401666Y6328334D01*
X1401666Y6161667D01*
X1368333Y6095000D01*
X1335000Y6061667D01*
X1268333Y6028334D01*
X1101666Y6028334D01*
X1035000Y6061667D01*
X1001666Y6095000D01*
X1601666Y6728334D02*
X1835000Y6028334D01*
X2068333Y6728334D01*
X1968333Y2885000D02*
X1901666Y2918334D01*
X1801666Y2918334D01*
X1701666Y2885000D01*
X1635000Y2818334D01*
X1601666Y2751667D01*
X1568333Y2618334D01*
X1568333Y2518334D01*
X1601666Y2385000D01*
X1635000Y2318334D01*
X1701666Y2251667D01*
X1801666Y2218334D01*
X1868333Y2218334D01*
X1968333Y2251667D01*
X2001666Y2285000D01*
X2001666Y2518334D01*
X1868333Y2518334D01*
X735000Y4809134D02*
X735000Y5509134D01*
X901666Y5509134D01*
X1001666Y5475800D01*
X1068333Y5409134D01*
X1101666Y5342467D01*
X1135000Y5209134D01*
X1135000Y5109134D01*
X1101666Y4975800D01*
X1068333Y4909134D01*
X1001666Y4842467D01*
X901666Y4809134D01*
X735000Y4809134D01*
X1435000Y5075800D02*
X1968333Y5075800D01*
%TO.C,J6*%
X24170400Y2235000D02*
X24137066Y2168334D01*
X24137066Y2068334D01*
X24170400Y1968334D01*
X24237066Y1901667D01*
X24303733Y1868334D01*
X24437066Y1835000D01*
X24537066Y1835000D01*
X24670400Y1868334D01*
X24737066Y1901667D01*
X24803733Y1968334D01*
X24837066Y2068334D01*
X24837066Y2135000D01*
X24803733Y2235000D01*
X24770400Y2268334D01*
X24537066Y2268334D01*
X24537066Y2135000D01*
X24837066Y2568334D02*
X24137066Y2568334D01*
X24837066Y2968334D01*
X24137066Y2968334D01*
X24837066Y3301667D02*
X24137066Y3301667D01*
X24137066Y3468334D01*
X24170400Y3568334D01*
X24237066Y3635000D01*
X24303733Y3668334D01*
X24437066Y3701667D01*
X24537066Y3701667D01*
X24670400Y3668334D01*
X24737066Y3635000D01*
X24803733Y3568334D01*
X24837066Y3468334D01*
X24837066Y3301667D01*
X24116666Y5365000D02*
X24116666Y5798334D01*
X24383333Y5565000D01*
X24383333Y5665000D01*
X24416666Y5731667D01*
X24450000Y5765000D01*
X24516666Y5798334D01*
X24683333Y5798334D01*
X24750000Y5765000D01*
X24783333Y5731667D01*
X24816666Y5665000D01*
X24816666Y5465000D01*
X24783333Y5398334D01*
X24750000Y5365000D01*
X24116666Y5998334D02*
X24816666Y6231667D01*
X24116666Y6465000D01*
X24116666Y6631667D02*
X24116666Y7065000D01*
X24383333Y6831667D01*
X24383333Y6931667D01*
X24416666Y6998334D01*
X24450000Y7031667D01*
X24516666Y7065000D01*
X24683333Y7065000D01*
X24750000Y7031667D01*
X24783333Y6998334D01*
X24816666Y6931667D01*
X24816666Y6731667D01*
X24783333Y6665000D01*
X24750000Y6631667D01*
X27316666Y2301667D02*
X27316666Y1901667D01*
X27316666Y2101667D02*
X26616666Y2101667D01*
X26716666Y2035000D01*
X26783333Y1968334D01*
X26816666Y1901667D01*
X26616666Y7031667D02*
X26616666Y6898334D01*
X26650000Y6831667D01*
X26683333Y6798334D01*
X26783333Y6731667D01*
X26916666Y6698334D01*
X27183333Y6698334D01*
X27250000Y6731667D01*
X27283333Y6765000D01*
X27316666Y6831667D01*
X27316666Y6965000D01*
X27283333Y7031667D01*
X27250000Y7065000D01*
X27183333Y7098334D01*
X27016666Y7098334D01*
X26950000Y7065000D01*
X26916666Y7031667D01*
X26883333Y6965000D01*
X26883333Y6831667D01*
X26916666Y6765000D01*
X26950000Y6731667D01*
X27016666Y6698334D01*
X25416666Y6665000D02*
X25416666Y7131667D01*
X26116666Y6831667D01*
X25416666Y2068334D02*
X25416666Y2135000D01*
X25450000Y2201667D01*
X25483333Y2235000D01*
X25550000Y2268334D01*
X25683333Y2301667D01*
X25850000Y2301667D01*
X25983333Y2268334D01*
X26050000Y2235000D01*
X26083333Y2201667D01*
X26116666Y2135000D01*
X26116666Y2068334D01*
X26083333Y2001667D01*
X26050000Y1968334D01*
X25983333Y1935000D01*
X25850000Y1901667D01*
X25683333Y1901667D01*
X25550000Y1935000D01*
X25483333Y1968334D01*
X25450000Y2001667D01*
X25416666Y2068334D01*
X27983333Y1901667D02*
X27950000Y1935000D01*
X27916666Y2001667D01*
X27916666Y2168334D01*
X27950000Y2235000D01*
X27983333Y2268334D01*
X28050000Y2301667D01*
X28116666Y2301667D01*
X28216666Y2268334D01*
X28616666Y1868334D01*
X28616666Y2301667D01*
X27916666Y7065000D02*
X27916666Y6731667D01*
X28250000Y6698334D01*
X28216666Y6731667D01*
X28183333Y6798334D01*
X28183333Y6965000D01*
X28216666Y7031667D01*
X28250000Y7065000D01*
X28316666Y7098334D01*
X28483333Y7098334D01*
X28550000Y7065000D01*
X28583333Y7031667D01*
X28616666Y6965000D01*
X28616666Y6798334D01*
X28583333Y6731667D01*
X28550000Y6698334D01*
X29450000Y7031667D02*
X29916666Y7031667D01*
X29183333Y6865000D02*
X29683333Y6698334D01*
X29683333Y7131667D01*
X29216666Y1868334D02*
X29216666Y2301667D01*
X29483333Y2068334D01*
X29483333Y2168334D01*
X29516666Y2235000D01*
X29550000Y2268334D01*
X29616666Y2301667D01*
X29783333Y2301667D01*
X29850000Y2268334D01*
X29883333Y2235000D01*
X29916666Y2168334D01*
X29916666Y1968334D01*
X29883333Y1901667D01*
X29850000Y1868334D01*
D11*
%TO.C,J1*%
X45800000Y7800000D02*
X45800000Y8800000D01*
X45800000Y1200000D02*
X45800000Y200000D01*
X37200000Y1200000D02*
X37200000Y200000D01*
X37200000Y7800000D02*
X37200000Y8800000D01*
X44800000Y8800000D02*
X45800000Y8800000D01*
X44800000Y200000D02*
X45800000Y200000D01*
X38200000Y200000D02*
X37200000Y200000D01*
X38200000Y8800000D02*
X37200000Y8800000D01*
G36*
X37600000Y200000D02*
G01*
X37200000Y200000D01*
X37200000Y600000D01*
X37600000Y200000D01*
G37*
D12*
X37600000Y200000D02*
X37200000Y200000D01*
X37200000Y600000D01*
X37600000Y200000D01*
D13*
%TO.C,J4*%
X16200000Y500000D02*
X16500000Y500000D01*
X17000000Y7700000D02*
X17000000Y8000000D01*
X9000000Y8000000D02*
X9000000Y7700000D01*
X9500000Y500000D02*
X9800000Y500000D01*
X17000000Y1000000D02*
X17000000Y1300000D01*
X16500000Y8500000D02*
X16200000Y8500000D01*
X9800000Y8500000D02*
X9500000Y8500000D01*
X9000000Y1300000D02*
X9000000Y1000000D01*
X9500000Y8500000D02*
G75*
G03*
X9000000Y8000000I0J-500000D01*
G01*
X9000000Y1000000D02*
G75*
G03*
X9500000Y500000I500001J1D01*
G01*
X16500000Y500000D02*
G75*
G03*
X17000000Y1000000I-1J500001D01*
G01*
X17000000Y8000000D02*
G75*
G03*
X16500000Y8500000I-500000J0D01*
G01*
D14*
X9630000Y1000000D02*
G75*
G03*
X9630000Y1000000I-130000J0D01*
G01*
D13*
%TO.C,J6*%
X31000000Y1000000D02*
X31000000Y1300000D01*
X23800000Y8500000D02*
X23500000Y8500000D01*
X30500000Y8500000D02*
X30200000Y8500000D01*
X23000000Y1300000D02*
X23000000Y1000000D01*
X31000000Y7700000D02*
X31000000Y8000000D01*
X23500000Y500000D02*
X23800000Y500000D01*
X23000000Y8000000D02*
X23000000Y7700000D01*
X30200000Y500000D02*
X30500000Y500000D01*
X30500000Y500000D02*
G75*
G03*
X31000000Y1000000I-1J500001D01*
G01*
X23000000Y1000000D02*
G75*
G03*
X23500000Y500000I500001J1D01*
G01*
X31000000Y8000000D02*
G75*
G03*
X30500000Y8500000I-500000J0D01*
G01*
X23500000Y8500000D02*
G75*
G03*
X23000000Y8000000I0J-500000D01*
G01*
D14*
X23630000Y1000000D02*
G75*
G03*
X23630000Y1000000I-130000J0D01*
G01*
%TD*%
%LPC*%
D15*
%TO.C,J1*%
X38000000Y1000000D03*
X38000000Y2000000D03*
X38000000Y3000000D03*
X38000000Y4000000D03*
X38000000Y5000000D03*
X38000000Y6000000D03*
X38000000Y7000000D03*
X38000000Y8000000D03*
X39000000Y1000000D03*
X39000000Y2000000D03*
X39000000Y3000000D03*
X39000000Y4000000D03*
X39000000Y5000000D03*
X39000000Y6000000D03*
X39000000Y7000000D03*
X39000000Y8000000D03*
X40000000Y1000000D03*
X40000000Y2000000D03*
X40000000Y3000000D03*
X40000000Y4000000D03*
X40000000Y5000000D03*
X40000000Y6000000D03*
X40000000Y7000000D03*
X40000000Y8000000D03*
X41000000Y1000000D03*
X41000000Y2000000D03*
X41000000Y3000000D03*
X41000000Y4000000D03*
X41000000Y5000000D03*
X41000000Y6000000D03*
X41000000Y7000000D03*
X41000000Y8000000D03*
X42000000Y1000000D03*
X43000000Y1000000D03*
X44000000Y1000000D03*
X45000000Y1000000D03*
X45000000Y2000000D03*
X45000000Y3000000D03*
X45000000Y4000000D03*
X45000000Y5000000D03*
X45000000Y6000000D03*
X45000000Y7000000D03*
X45000000Y8000000D03*
X44000000Y8000000D03*
X43000000Y8000000D03*
X42000000Y8000000D03*
%TD*%
D16*
%TO.C,J4*%
X10460000Y1000000D03*
X11730000Y1000000D03*
X13000000Y1000000D03*
X14270000Y1000000D03*
X15540000Y1000000D03*
X15540000Y8000000D03*
X14270000Y8000000D03*
X13000000Y8000000D03*
X11730000Y8000000D03*
X10460000Y8000000D03*
%TD*%
D17*
%TO.C,J2*%
X3137750Y6395800D03*
X3137750Y5125800D03*
X3137750Y3855800D03*
X3137750Y2585800D03*
D18*
X587750Y745000D03*
X587750Y8245000D03*
%TD*%
D16*
%TO.C,J6*%
X24460000Y1000000D03*
X25730000Y1000000D03*
X27000000Y1000000D03*
X28270000Y1000000D03*
X29540000Y1000000D03*
X29540000Y8000000D03*
X28270000Y8000000D03*
X27000000Y8000000D03*
X25730000Y8000000D03*
X24460000Y8000000D03*
%TD*%
M02*
